<?xml version="1.0" encoding="UTF-8" standalone="yes"?><svg xmlns="http://www.w3.org/2000/svg" xmlns:xlink="http://www.w3.org/1999/xlink" height="753px" style="width:1756px;height:753px;" version="1.1" viewBox="0 0 1756 753" width="1756px"><defs><filter height="300%" id="f1" width="300%" x="-1" y="-1"><feGaussianBlur result="blurOut" stdDeviation="2.0"/><feColorMatrix in="blurOut" result="blurOut2" type="matrix" values="0 0 0 0 0 0 0 0 0 0 0 0 0 0 0 0 0 0 .4 0"/><feOffset dx="4.0" dy="4.0" in="blurOut2" result="blurOut3"/><feBlend in="SourceGraphic" in2="blurOut3" mode="normal"/></filter></defs><g><polygon fill="#FFFF00" filter="url(#f1)" points="693,24,776,24,783,46.4883,1526,46.4883,1526,501,693,501,693,24" style="stroke: #000000; stroke-width: 2.0;"/><line style="stroke: #000000; stroke-width: 2.0;" x1="693" x2="783" y1="46.4883" y2="46.4883"/><text fill="#000000" font-family="sans-serif" font-size="14" font-weight="bold" lengthAdjust="spacingAndGlyphs" textLength="77" x="697" y="39.5352">conference</text><polygon fill="#FFFF00" filter="url(#f1)" points="717,237,777,237,784,259.4883,1502,259.4883,1502,477,717,477,717,237" style="stroke: #000000; stroke-width: 2.0;"/><line style="stroke: #000000; stroke-width: 2.0;" x1="717" x2="784" y1="259.4883" y2="259.4883"/><text fill="#000000" font-family="sans-serif" font-size="14" font-weight="bold" lengthAdjust="spacingAndGlyphs" textLength="54" x="721" y="252.5352">adapter</text><polygon fill="#008000" filter="url(#f1)" points="22,178,59,178,66,200.4883,662,200.4883,662,517,22,517,22,178" style="stroke: #000000; stroke-width: 2.0;"/><line style="stroke: #000000; stroke-width: 2.0;" x1="22" x2="66" y1="200.4883" y2="200.4883"/><text fill="#000000" font-family="sans-serif" font-size="14" font-weight="bold" lengthAdjust="spacingAndGlyphs" textLength="31" x="26" y="193.5352">user</text><polygon fill="#008000" filter="url(#f1)" points="46,237,116,237,123,259.4883,244,259.4883,244,477,46,477,46,237" style="stroke: #000000; stroke-width: 2.0;"/><line style="stroke: #000000; stroke-width: 2.0;" x1="46" x2="123" y1="259.4883" y2="259.4883"/><text fill="#000000" font-family="sans-serif" font-size="14" font-weight="bold" lengthAdjust="spacingAndGlyphs" textLength="64" x="50" y="252.5352">favorites</text><polygon fill="#008000" filter="url(#f1)" points="428,229,470,229,477,251.4883,630,251.4883,630,485,428,485,428,229" style="stroke: #000000; stroke-width: 2.0;"/><line style="stroke: #000000; stroke-width: 2.0;" x1="428" x2="477" y1="251.4883" y2="251.4883"/><text fill="#000000" font-family="sans-serif" font-size="14" font-weight="bold" lengthAdjust="spacingAndGlyphs" textLength="36" x="432" y="244.5352">filter</text><polygon fill="#FFFFFF" filter="url(#f1)" points="288,570,408,570,415,592.4883,837,592.4883,837,746,288,746,288,570" style="stroke: #000000; stroke-width: 2.0;"/><line style="stroke: #000000; stroke-width: 2.0;" x1="288" x2="415" y1="592.4883" y2="592.4883"/><text fill="#000000" font-family="sans-serif" font-size="14" font-weight="bold" lengthAdjust="spacingAndGlyphs" textLength="114" x="292" y="585.5352">dukeconStorage</text><polygon fill="#FFFFFF" filter="url(#f1)" points="312,613,390,613,397,635.4883,603,635.4883,603,722,312,722,312,613" style="stroke: #000000; stroke-width: 2.0;"/><line style="stroke: #000000; stroke-width: 2.0;" x1="312" x2="397" y1="635.4883" y2="635.4883"/><text fill="#000000" font-family="sans-serif" font-size="14" font-weight="bold" lengthAdjust="spacingAndGlyphs" textLength="72" x="316" y="628.5352">databases</text><polygon fill="#FFFFFF" filter="url(#f1)" points="627,615.5,665,615.5,672,637.9883,813,637.9883,813,719.5,627,719.5,627,615.5" style="stroke: #000000; stroke-width: 2.0;"/><line style="stroke: #000000; stroke-width: 2.0;" x1="627" x2="672" y1="637.9883" y2="637.9883"/><text fill="#000000" font-family="sans-serif" font-size="14" font-weight="bold" lengthAdjust="spacingAndGlyphs" textLength="32" x="631" y="631.0352">files</text><path d="M864,573 C864,570 866,568 869,568 C872,568 874,570 874,573 C874,570 876,568 879,568 C882,568 884,570 884,573 C884,570 886,568 889,568 C892,568 894,570 894,573 C894,570 896,568 899,568 C902,568 904,570 904,573 C904,570 906,568 909,568 C912,568 914,570 914,573 C914,570 916,568 919,568 C922,568 924,570 924,573 C924,570 926,568 929,568 C932,568 934,570 934,573 C934,570 936,568 939,568 C942,568 944,570 944,573 C944,570 946,568 949,568 C952,568 954,570 954,573 C954,570 956,568 959,568 C962,568 964,570 964,573 C964,570 966,568 969,568 C972,568 974,570 974,573 C974,570 976,568 979,568 C982,568 984,570 984,573 C984,570 986,568 989,568 C992,568 994,570 994,573 C994,570 996,568 999,568 C1002,568 1004,570 1004,573 C1004,570 1006,568 1009,568 C1012,568 1014,570 1014,573 C1014,570 1016,568 1019,568 C1022,568 1024,570 1024,573 C1024,570 1026,568 1029,568 C1032,568 1034,570 1034,573 C1034,570 1036,568 1039,568 C1042,568 1044,570 1044,573 C1044,570 1046,568 1049,568 C1052,568 1054,570 1054,573 C1054,570 1056,568 1059,568 C1062,568 1064,570 1064,573 C1064,570 1066,568 1069,568 C1072,568 1074,570 1074,573 C1074,570 1076,568 1079,568 C1082,568 1084,570 1084,573 C1084,570 1086,568 1089,568 C1092,568 1094,570 1094,573 C1094,570 1096,568 1099,568 C1102,568 1104,570 1104,573 C1104,570 1106,568 1109,568 C1112,568 1114,570 1114,573 C1114,570 1116,568 1119,568 C1122,568 1124,570 1124,573 C1124,570 1126,568 1129,568 C1132,568 1134,570 1134,573 C1134,570 1136,568 1139,568 C1142,568 1144,570 1144,573 C1144,570 1146,568 1149,568 C1152,568 1154,570 1154,573 C1154,570 1156,568 1159,568 C1162,568 1164,570 1164,573 C1164,570 1166,568 1169,568 C1172,568 1174,570 1174,573 C1174,570 1176,568 1179,568 C1182,568 1184,570 1184,573 C1184,570 1186,568 1189,568 C1192,568 1194,570 1194,573 C1194,570 1196,568 1199,568 C1202,568 1204,570 1204,573 C1204,570 1206,568 1209,568 C1212,568 1214,570 1214,573 C1214,570 1216,568 1219,568 C1222,568 1224,570 1224,573 C1224,570 1226,568 1229,568 C1232,568 1234,570 1234,573 C1234,570 1236,568 1239,568 C1242,568 1244,570 1244,573 C1244,570 1246,568 1249,568 C1252,568 1254,570 1254,573 C1254,570 1256,568 1259,568 C1262,568 1264,570 1264,573 C1264,570 1266,568 1269,568 C1272,568 1274,570 1274,573 C1274,570 1276,568 1279,568 C1282,568 1284,570 1284,573 C1284,570 1286,568 1289,568 C1292,568 1294,570 1294,573 C1294,570 1296,568 1299,568 C1302,568 1304,570 1304,573 C1304,570 1306,568 1309,568 C1312,568 1314,570 1314,573 C1314,570 1316,568 1319,568 C1322,568 1324,570 1324,573 C1324,570 1326,568 1329,568 C1332,568 1334,570 1334,573 C1334,570 1336,568 1339,568 C1342,568 1344,570 1344,573 C1344,570 1346,568 1349,568 C1352,568 1354,570 1354,573 C1354,570 1356,568 1359,568 C1362,568 1364,570 1364,573 C1364,570 1366,568 1369,568 C1372,568 1374,570 1374,573 C1374,570 1376,568 1379,568 C1382,568 1384,570 1384,573 C1384,570 1386,568 1389,568 C1392,568 1394,570 1394,573 C1394,570 1396,568 1399,568 C1402,568 1404,570 1404,573 C1404,570 1406,568 1409,568 C1412,568 1414,570 1414,573 C1414,570 1416,568 1419,568 C1422,568 1424,570 1424,573 C1424,570 1426,568 1429,568 C1432,568 1434,570 1434,573 C1434,570 1436,568 1439,568 C1442,568 1444,570 1444,573 C1444,570 1446,568 1449,568 C1452,568 1454,570 1454,573 C1454,570 1456,568 1459,568 C1462,568 1464,570 1464,573 C1464,570 1466,568 1469,568 C1472,568 1474,570 1474,573 C1474,570 1476,568 1479,568 C1482,568 1484,570 1484,573 C1484,570 1486,568 1489,568 C1492,568 1494,570 1494,573 C1494,570 1496,568 1499,568 C1502,568 1504,570 1504,573 C1504,570 1506,568 1509,568 C1512,568 1514,570 1514,573 C1514,570 1516,568 1519,568 C1522,568 1524,570 1524,573 C1524,570 1526,568 1529,568 C1532,568 1534,570 1534,573 C1534,570 1536,568 1539,568 C1542,568 1544,570 1544,573 C1544,570 1546,568 1549,568 C1552,568 1554,570 1554,573 C1554,570 1556,568 1559,568 C1562,568 1564,570 1564,573 C1564,570 1566,568 1569,568 C1572,568 1574,570 1574,573 C1574,570 1576,568 1579,568 C1582,568 1584,570 1584,573 C1584,570 1586,568 1589,568 C1592,568 1594,570 1594,573 C1594,570 1596,568 1599,568 C1602,568 1604,570 1604,573 C1604,570 1606,568 1609,568 C1612,568 1614,570 1614,573 C1614,570 1616,568 1619,568 C1622,568 1624,570 1624,573 C1624,570 1626,568 1629,568 C1632,568 1634,570 1634,573 C1634,570 1636,568 1639,568 C1642,568 1644,570 1644,573 C1644,570 1646,568 1649,568 C1652,568 1654,570 1654,573 C1654,570 1656,568 1659,568 C1662,568 1664,570 1664,573 C1664,570 1666,568 1669,568 C1672,568 1674,570 1674,573 C1674,570 1676,568 1679,568 C1682,568 1684,570 1684,573 C1684,570 1686,568 1689,568 C1692,568 1694,570 1694,573 C1694,570 1696,568 1699,568 C1702,568 1704,570 1704,573 C1704,570 1706,568 1709,568 C1712,568 1714,570 1714,573 C1714,570 1716,568 1719,568 C1722,568 1724,570 1724,573 C1724,570 1726,568 1729,568 C1732,568 1734,570 1734,573 C1734,570 1736,568 1739,568 C1742,568 1744,570 1744,573 C1747,573 1749,575 1749,578 C1749,581 1747,583 1744,583 C1747,583 1749,585 1749,588 C1749,591 1747,593 1744,593 C1747,593 1749,595 1749,598 C1749,601 1747,603 1744,603 C1747,603 1749,605 1749,608 C1749,611 1747,613 1744,613 C1747,613 1749,615 1749,618 C1749,621 1747,623 1744,623 C1747,623 1749,625 1749,628 C1749,631 1747,633 1744,633 C1747,633 1749,635 1749,638 C1749,641 1747,643 1744,643 C1747,643 1749,645 1749,648 C1749,651 1747,653 1744,653 C1747,653 1749,655 1749,658 C1749,661 1747,663 1744,663 C1747,663 1749,665 1749,668 C1749,671 1747,673 1744,673 C1747,673 1749,675 1749,678 C1749,681 1747,683 1744,683 C1747,683 1749,685 1749,688 C1749,691 1747,693 1744,693 C1747,693 1749,695 1749,698 C1749,701 1747,703 1744,703 C1747,703 1749,705 1749,708 C1749,711 1747,713 1744,713 C1747,713 1749,715 1749,718 C1749,721 1747,723 1744,723 C1744,726 1741,728 1739,728 C1736,728 1734,726 1734,723 C1734,726 1731,728 1729,728 C1726,728 1724,726 1724,723 C1724,726 1721,728 1719,728 C1716,728 1714,726 1714,723 C1714,726 1711,728 1709,728 C1706,728 1704,726 1704,723 C1704,726 1701,728 1699,728 C1696,728 1694,726 1694,723 C1694,726 1691,728 1689,728 C1686,728 1684,726 1684,723 C1684,726 1681,728 1679,728 C1676,728 1674,726 1674,723 C1674,726 1671,728 1669,728 C1666,728 1664,726 1664,723 C1664,726 1661,728 1659,728 C1656,728 1654,726 1654,723 C1654,726 1651,728 1649,728 C1646,728 1644,726 1644,723 C1644,726 1641,728 1639,728 C1636,728 1634,726 1634,723 C1634,726 1631,728 1629,728 C1626,728 1624,726 1624,723 C1624,726 1621,728 1619,728 C1616,728 1614,726 1614,723 C1614,726 1611,728 1609,728 C1606,728 1604,726 1604,723 C1604,726 1601,728 1599,728 C1596,728 1594,726 1594,723 C1594,726 1591,728 1589,728 C1586,728 1584,726 1584,723 C1584,726 1581,728 1579,728 C1576,728 1574,726 1574,723 C1574,726 1571,728 1569,728 C1566,728 1564,726 1564,723 C1564,726 1561,728 1559,728 C1556,728 1554,726 1554,723 C1554,726 1551,728 1549,728 C1546,728 1544,726 1544,723 C1544,726 1541,728 1539,728 C1536,728 1534,726 1534,723 C1534,726 1531,728 1529,728 C1526,728 1524,726 1524,723 C1524,726 1521,728 1519,728 C1516,728 1514,726 1514,723 C1514,726 1511,728 1509,728 C1506,728 1504,726 1504,723 C1504,726 1501,728 1499,728 C1496,728 1494,726 1494,723 C1494,726 1491,728 1489,728 C1486,728 1484,726 1484,723 C1484,726 1481,728 1479,728 C1476,728 1474,726 1474,723 C1474,726 1471,728 1469,728 C1466,728 1464,726 1464,723 C1464,726 1461,728 1459,728 C1456,728 1454,726 1454,723 C1454,726 1451,728 1449,728 C1446,728 1444,726 1444,723 C1444,726 1441,728 1439,728 C1436,728 1434,726 1434,723 C1434,726 1431,728 1429,728 C1426,728 1424,726 1424,723 C1424,726 1421,728 1419,728 C1416,728 1414,726 1414,723 C1414,726 1411,728 1409,728 C1406,728 1404,726 1404,723 C1404,726 1401,728 1399,728 C1396,728 1394,726 1394,723 C1394,726 1391,728 1389,728 C1386,728 1384,726 1384,723 C1384,726 1381,728 1379,728 C1376,728 1374,726 1374,723 C1374,726 1371,728 1369,728 C1366,728 1364,726 1364,723 C1364,726 1361,728 1359,728 C1356,728 1354,726 1354,723 C1354,726 1351,728 1349,728 C1346,728 1344,726 1344,723 C1344,726 1341,728 1339,728 C1336,728 1334,726 1334,723 C1334,726 1331,728 1329,728 C1326,728 1324,726 1324,723 C1324,726 1321,728 1319,728 C1316,728 1314,726 1314,723 C1314,726 1311,728 1309,728 C1306,728 1304,726 1304,723 C1304,726 1301,728 1299,728 C1296,728 1294,726 1294,723 C1294,726 1291,728 1289,728 C1286,728 1284,726 1284,723 C1284,726 1281,728 1279,728 C1276,728 1274,726 1274,723 C1274,726 1271,728 1269,728 C1266,728 1264,726 1264,723 C1264,726 1261,728 1259,728 C1256,728 1254,726 1254,723 C1254,726 1251,728 1249,728 C1246,728 1244,726 1244,723 C1244,726 1241,728 1239,728 C1236,728 1234,726 1234,723 C1234,726 1231,728 1229,728 C1226,728 1224,726 1224,723 C1224,726 1221,728 1219,728 C1216,728 1214,726 1214,723 C1214,726 1211,728 1209,728 C1206,728 1204,726 1204,723 C1204,726 1201,728 1199,728 C1196,728 1194,726 1194,723 C1194,726 1191,728 1189,728 C1186,728 1184,726 1184,723 C1184,726 1181,728 1179,728 C1176,728 1174,726 1174,723 C1174,726 1171,728 1169,728 C1166,728 1164,726 1164,723 C1164,726 1161,728 1159,728 C1156,728 1154,726 1154,723 C1154,726 1151,728 1149,728 C1146,728 1144,726 1144,723 C1144,726 1141,728 1139,728 C1136,728 1134,726 1134,723 C1134,726 1131,728 1129,728 C1126,728 1124,726 1124,723 C1124,726 1121,728 1119,728 C1116,728 1114,726 1114,723 C1114,726 1111,728 1109,728 C1106,728 1104,726 1104,723 C1104,726 1101,728 1099,728 C1096,728 1094,726 1094,723 C1094,726 1091,728 1089,728 C1086,728 1084,726 1084,723 C1084,726 1081,728 1079,728 C1076,728 1074,726 1074,723 C1074,726 1071,728 1069,728 C1066,728 1064,726 1064,723 C1064,726 1061,728 1059,728 C1056,728 1054,726 1054,723 C1054,726 1051,728 1049,728 C1046,728 1044,726 1044,723 C1044,726 1041,728 1039,728 C1036,728 1034,726 1034,723 C1034,726 1031,728 1029,728 C1026,728 1024,726 1024,723 C1024,726 1021,728 1019,728 C1016,728 1014,726 1014,723 C1014,726 1011,728 1009,728 C1006,728 1004,726 1004,723 C1004,726 1001,728 999,728 C996,728 994,726 994,723 C994,726 991,728 989,728 C986,728 984,726 984,723 C984,726 981,728 979,728 C976,728 974,726 974,723 C974,726 971,728 969,728 C966,728 964,726 964,723 C964,726 961,728 959,728 C956,728 954,726 954,723 C954,726 951,728 949,728 C946,728 944,726 944,723 C944,726 941,728 939,728 C936,728 934,726 934,723 C934,726 931,728 929,728 C926,728 924,726 924,723 C924,726 921,728 919,728 C916,728 914,726 914,723 C914,726 911,728 909,728 C906,728 904,726 904,723 C904,726 901,728 899,728 C896,728 894,726 894,723 C894,726 891,728 889,728 C886,728 884,726 884,723 C884,726 881,728 879,728 C876,728 874,726 874,723 C874,726 871,728 869,728 C866,728 864,726 864,723 C861,723 859,721 859,718 C859,715 861,713 864,713 C861,713 859,711 859,708 C859,705 861,703 864,703 C861,703 859,701 859,698 C859,695 861,693 864,693 C861,693 859,691 859,688 C859,685 861,683 864,683 C861,683 859,681 859,678 C859,675 861,673 864,673 C861,673 859,671 859,668 C859,665 861,663 864,663 C861,663 859,661 859,658 C859,655 861,653 864,653 C861,653 859,651 859,648 C859,645 861,643 864,643 C861,643 859,641 859,638 C859,635 861,633 864,633 C861,633 859,631 859,628 C859,625 861,623 864,623 C861,623 859,621 859,618 C859,615 861,613 864,613 C861,613 859,611 859,608 C859,605 861,603 864,603 C861,603 859,601 859,598 C859,595 861,593 864,593 C861,593 859,591 859,588 C859,585 861,583 864,583 C861,583 859,581 859,578 C859,575 861,573 864,573 " fill="#FFFFFF" filter="url(#f1)" style="stroke: #000000; stroke-width: 2.0;"/><text fill="#000000" font-family="sans-serif" font-size="14" font-weight="bold" lengthAdjust="spacingAndGlyphs" textLength="146" x="1232" y="592.5352">externalDataSources</text><polygon fill="#FFFFFF" filter="url(#f1)" points="1246,609,1312,609,1319,631.4883,1516,631.4883,1516,710,1246,710,1246,609" style="stroke: #000000; stroke-width: 2.0;"/><line style="stroke: #000000; stroke-width: 2.0;" x1="1246" x2="1319" y1="631.4883" y2="631.4883"/><text fill="#000000" font-family="sans-serif" font-size="14" font-weight="bold" lengthAdjust="spacingAndGlyphs" textLength="60" x="1250" y="624.5352">javaland</text><text fill="#000000" font-family="sans-serif" font-size="14" font-style="italic" lengthAdjust="spacingAndGlyphs" textLength="169" x="1300.5" y="647.0234">«FormesDataRepository»</text><polygon fill="#FFFFFF" filter="url(#f1)" points="1540,609,1565,609,1572,631.4883,1725,631.4883,1725,710,1540,710,1540,609" style="stroke: #000000; stroke-width: 2.0;"/><line style="stroke: #000000; stroke-width: 2.0;" x1="1540" x2="1572" y1="631.4883" y2="631.4883"/><text fill="#000000" font-family="sans-serif" font-size="14" font-weight="bold" lengthAdjust="spacingAndGlyphs" textLength="19" x="1544" y="624.5352">jfs</text><text fill="#000000" font-family="sans-serif" font-size="14" font-style="italic" lengthAdjust="spacingAndGlyphs" textLength="169" x="1552" y="647.0234">«FormesDataRepository»</text><polygon fill="#FFFFFF" filter="url(#f1)" points="885,609,1006,609,1013,631.4883,1222,631.4883,1222,710,885,710,885,609" style="stroke: #000000; stroke-width: 2.0;"/><line style="stroke: #000000; stroke-width: 2.0;" x1="885" x2="1013" y1="631.4883" y2="631.4883"/><text fill="#000000" font-family="sans-serif" font-size="14" font-weight="bold" lengthAdjust="spacingAndGlyphs" textLength="115" x="889" y="624.5352">linuxfoundation</text><text fill="#000000" font-family="sans-serif" font-size="14" font-style="italic" lengthAdjust="spacingAndGlyphs" textLength="159" x="978" y="647.0234">«SchedDataRepository»</text><polygon fill="#FFFFFF" filter="url(#f1)" points="1051,59,1191,59,1198,81.4883,1215,81.4883,1215,114.9766,1051,114.9766,1051,59" style="stroke: #000000; stroke-width: 1.5;"/><line style="stroke: #000000; stroke-width: 1.5;" x1="1051" x2="1198" y1="81.4883" y2="81.4883"/><text fill="#000000" font-family="sans-serif" font-size="14" lengthAdjust="spacingAndGlyphs" textLength="134" x="1055" y="75.5352">ConferenceServices</text><text fill="#000000" font-family="sans-serif" font-size="14" lengthAdjust="spacingAndGlyphs" textLength="54" x="1061" y="102.0234">services</text><polygon fill="#FFFFFF" filter="url(#f1)" points="1039.5,272,1202.5,272,1209.5,294.4883,1226.5,294.4883,1226.5,327.9766,1039.5,327.9766,1039.5,272" style="stroke: #000000; stroke-width: 1.5;"/><line style="stroke: #000000; stroke-width: 1.5;" x1="1039.5" x2="1209.5" y1="294.4883" y2="294.4883"/><text fill="#000000" font-family="sans-serif" font-size="14" lengthAdjust="spacingAndGlyphs" textLength="157" x="1043.5" y="288.5352">ConferenceAdapterApi</text><text fill="#000000" font-family="sans-serif" font-size="14" lengthAdjust="spacingAndGlyphs" textLength="21" x="1049.5" y="315.0234">api</text><polygon fill="#FFFFFF" filter="url(#f1)" points="1030.5,405,1211.5,405,1218.5,427.4883,1235.5,427.4883,1235.5,460.9766,1030.5,460.9766,1030.5,405" style="stroke: #000000; stroke-width: 1.5;"/><line style="stroke: #000000; stroke-width: 1.5;" x1="1030.5" x2="1218.5" y1="427.4883" y2="427.4883"/><text fill="#000000" font-family="sans-serif" font-size="14" lengthAdjust="spacingAndGlyphs" textLength="175" x="1034.5" y="421.5352">ConferenceAdapterSched</text><text fill="#000000" font-family="sans-serif" font-size="14" lengthAdjust="spacingAndGlyphs" textLength="40" x="1040.5" y="448.0234">sched</text><polygon fill="#FFFFFF" filter="url(#f1)" points="1270.5,405,1461.5,405,1468.5,427.4883,1485.5,427.4883,1485.5,460.9766,1270.5,460.9766,1270.5,405" style="stroke: #000000; stroke-width: 1.5;"/><line style="stroke: #000000; stroke-width: 1.5;" x1="1270.5" x2="1468.5" y1="427.4883" y2="427.4883"/><text fill="#000000" font-family="sans-serif" font-size="14" lengthAdjust="spacingAndGlyphs" textLength="185" x="1274.5" y="421.5352">ConferenceAdapterFormes</text><text fill="#000000" font-family="sans-serif" font-size="14" lengthAdjust="spacingAndGlyphs" textLength="48" x="1280.5" y="448.0234">formes</text><polygon fill="#FFFFFF" filter="url(#f1)" points="733,405,971,405,978,427.4883,995,427.4883,995,460.9766,733,460.9766,733,405" style="stroke: #000000; stroke-width: 1.5;"/><line style="stroke: #000000; stroke-width: 1.5;" x1="733" x2="978" y1="427.4883" y2="427.4883"/><text fill="#000000" font-family="sans-serif" font-size="14" lengthAdjust="spacingAndGlyphs" textLength="232" x="737" y="421.5352">ConferenceAdapterHerbstcampus</text><text fill="#000000" font-family="sans-serif" font-size="14" lengthAdjust="spacingAndGlyphs" textLength="97" x="743" y="448.0234">herbstcampus</text><polygon fill="#FBFB77" filter="url(#f1)" points="262.5,412.5,262.5,453.1211,403.5,453.1211,403.5,422.5,393.5,412.5,262.5,412.5" style="stroke: #A80036; stroke-width: 1.0;"/><line style="stroke: #A80036; stroke-width: 1.0;" x1="393.5" x2="393.5" y1="412.5" y2="422.5"/><line style="stroke: #A80036; stroke-width: 1.0;" x1="403.5" x2="393.5" y1="422.5" y2="422.5"/><text fill="#000000" font-family="sans-serif" font-size="13" lengthAdjust="spacingAndGlyphs" textLength="120" x="268.5" y="430.0684">Should be renamed</text><text fill="#000000" font-family="sans-serif" font-size="13" lengthAdjust="spacingAndGlyphs" textLength="69" x="268.5" y="445.3789">to "filters"?</text><polygon fill="#FFFFFF" filter="url(#f1)" points="71.5,272,194.5,272,201.5,294.4883,218.5,294.4883,218.5,327.9766,71.5,327.9766,71.5,272" style="stroke: #000000; stroke-width: 1.5;"/><line style="stroke: #000000; stroke-width: 1.5;" x1="71.5" x2="201.5" y1="294.4883" y2="294.4883"/><text fill="#000000" font-family="sans-serif" font-size="14" lengthAdjust="spacingAndGlyphs" textLength="117" x="75.5" y="288.5352">FavoritesServices</text><text fill="#000000" font-family="sans-serif" font-size="14" lengthAdjust="spacingAndGlyphs" textLength="54" x="81.5" y="315.0234">services</text><polygon fill="#FFFFFF" filter="url(#f1)" points="62.5,405,203.5,405,210.5,427.4883,227.5,427.4883,227.5,460.9766,62.5,460.9766,62.5,405" style="stroke: #000000; stroke-width: 1.5;"/><line style="stroke: #000000; stroke-width: 1.5;" x1="62.5" x2="210.5" y1="427.4883" y2="427.4883"/><text fill="#000000" font-family="sans-serif" font-size="14" lengthAdjust="spacingAndGlyphs" textLength="135" x="66.5" y="421.5352">FavoritesRepository</text><text fill="#000000" font-family="sans-serif" font-size="14" lengthAdjust="spacingAndGlyphs" textLength="70" x="72.5" y="448.0234">repository</text><polygon fill="#FFFFFF" filter="url(#f1)" points="471.5,272,574.5,272,581.5,294.4883,598.5,294.4883,598.5,327.9766,471.5,327.9766,471.5,272" style="stroke: #000000; stroke-width: 1.5;"/><line style="stroke: #000000; stroke-width: 1.5;" x1="471.5" x2="581.5" y1="294.4883" y2="294.4883"/><text fill="#000000" font-family="sans-serif" font-size="14" lengthAdjust="spacingAndGlyphs" textLength="97" x="475.5" y="288.5352">FiltersServices</text><text fill="#000000" font-family="sans-serif" font-size="14" lengthAdjust="spacingAndGlyphs" textLength="54" x="481.5" y="315.0234">services</text><polygon fill="#FFFFFF" filter="url(#f1)" points="460.5,405,581.5,405,588.5,427.4883,605.5,427.4883,605.5,460.9766,460.5,460.9766,460.5,405" style="stroke: #000000; stroke-width: 1.5;"/><line style="stroke: #000000; stroke-width: 1.5;" x1="460.5" x2="588.5" y1="427.4883" y2="427.4883"/><text fill="#000000" font-family="sans-serif" font-size="14" lengthAdjust="spacingAndGlyphs" textLength="115" x="464.5" y="421.5352">FiltersRepository</text><text fill="#000000" font-family="sans-serif" font-size="14" lengthAdjust="spacingAndGlyphs" textLength="70" x="470.5" y="448.0234">repository</text><path d="M328,658 C328,648 384,648 384,648 C384,648 440,648 440,658 L440,695.9766 C440,705.9766 384,705.9766 384,705.9766 C384,705.9766 328,705.9766 328,695.9766 L328,658 " fill="#FFFFFF" filter="url(#f1)" style="stroke: #000000; stroke-width: 1.5;"/><path d="M328,658 C328,668 384,668 384,668 C384,668 440,668 440,658 " fill="none" style="stroke: #000000; stroke-width: 1.5;"/><text fill="#000000" font-family="sans-serif" font-size="14" font-style="italic" lengthAdjust="spacingAndGlyphs" textLength="92" x="338" y="681.5352">«PostgreSQL»</text><text fill="#000000" font-family="sans-serif" font-size="14" lengthAdjust="spacingAndGlyphs" textLength="77" x="345.5" y="698.0234">favoritesDB</text><path d="M475,658 C475,648 531,648 531,648 C531,648 587,648 587,658 L587,695.9766 C587,705.9766 531,705.9766 531,705.9766 C531,705.9766 475,705.9766 475,695.9766 L475,658 " fill="#FFFFFF" filter="url(#f1)" style="stroke: #000000; stroke-width: 1.5;"/><path d="M475,658 C475,668 531,668 531,668 C531,668 587,668 587,658 " fill="none" style="stroke: #000000; stroke-width: 1.5;"/><text fill="#000000" font-family="sans-serif" font-size="14" font-style="italic" lengthAdjust="spacingAndGlyphs" textLength="92" x="485" y="681.5352">«PostgreSQL»</text><text fill="#000000" font-family="sans-serif" font-size="14" lengthAdjust="spacingAndGlyphs" textLength="57" x="502.5" y="698.0234">filtersDB</text><rect fill="#FFFFFF" filter="url(#f1)" height="52.9766" rx="35" ry="35" style="stroke: #000000; stroke-width: 1.5;" width="153" x="643.5" y="650.5"/><text fill="#000000" font-family="sans-serif" font-size="14" font-style="italic" lengthAdjust="spacingAndGlyphs" textLength="38" x="701" y="674.0352">«File»</text><text fill="#000000" font-family="sans-serif" font-size="14" lengthAdjust="spacingAndGlyphs" textLength="133" x="653.5" y="690.5234">herbstcampus2016</text><ellipse cx="1313" cy="669" fill="#FEFECE" filter="url(#f1)" rx="8" ry="8" style="stroke: #A80036; stroke-width: 2.0;"/><text fill="#000000" font-family="sans-serif" font-size="14" lengthAdjust="spacingAndGlyphs" textLength="101" x="1262.5" y="691.5352">javaland-2016</text><ellipse cx="1449" cy="669" fill="#FEFECE" filter="url(#f1)" rx="8" ry="8" style="stroke: #A80036; stroke-width: 2.0;"/><text fill="#000000" font-family="sans-serif" font-size="14" lengthAdjust="spacingAndGlyphs" textLength="101" x="1398.5" y="691.5352">javaland-2017</text><ellipse cx="1586" cy="669" fill="#FEFECE" filter="url(#f1)" rx="8" ry="8" style="stroke: #A80036; stroke-width: 2.0;"/><text fill="#000000" font-family="sans-serif" font-size="14" lengthAdjust="spacingAndGlyphs" textLength="60" x="1556" y="691.5352">jfs-2016</text><ellipse cx="969" cy="669" fill="#FEFECE" filter="url(#f1)" rx="8" ry="8" style="stroke: #A80036; stroke-width: 2.0;"/><text fill="#000000" font-family="sans-serif" font-size="14" lengthAdjust="spacingAndGlyphs" textLength="135" x="901.5" y="691.5352">apachecon-2016eu</text><ellipse cx="1139" cy="669" fill="#FEFECE" filter="url(#f1)" rx="8" ry="8" style="stroke: #A80036; stroke-width: 2.0;"/><text fill="#000000" font-family="sans-serif" font-size="14" lengthAdjust="spacingAndGlyphs" textLength="134" x="1072" y="691.5352">apachecon-2016us</text><path d="M1133,348.294 C1133,367.316 1133,388.563 1133,404.891 " fill="none" style="stroke: #A80036; stroke-width: 1.0;"/><polygon fill="none" points="1126,348.143,1133,328.143,1140,348.143,1126,348.143" style="stroke: #A80036; stroke-width: 1.0;"/><text fill="#000000" font-family="sans-serif" font-size="13" lengthAdjust="spacingAndGlyphs" textLength="67" x="1134" y="371.5684">implement</text><path d="M1201.63,337.695 C1241.52,359.026 1290.93,385.447 1327.3,404.891 " fill="none" style="stroke: #A80036; stroke-width: 1.0;"/><polygon fill="none" points="1198.1,343.747,1183.76,328.143,1204.7,331.401,1198.1,343.747" style="stroke: #A80036; stroke-width: 1.0;"/><text fill="#000000" font-family="sans-serif" font-size="13" lengthAdjust="spacingAndGlyphs" textLength="67" x="1271" y="371.5684">implement</text><path d="M1059.13,336.974 C1015.07,358.429 960.044,385.227 919.666,404.891 " fill="none" style="stroke: #A80036; stroke-width: 1.0;"/><polygon fill="none" points="1056.22,330.607,1077.26,328.143,1062.35,343.193,1056.22,330.607" style="stroke: #A80036; stroke-width: 1.0;"/><text fill="#000000" font-family="sans-serif" font-size="13" lengthAdjust="spacingAndGlyphs" textLength="67" x="1016" y="371.5684">implement</text><path d="M1133,115.153 C1133,154.006 1133,225.337 1133,266.8 " fill="none" style="stroke: #A80036; stroke-width: 1.0;"/><polygon fill="#A80036" points="1133,271.952,1137,262.952,1133,266.952,1129,262.952,1133,271.952" style="stroke: #A80036; stroke-width: 1.0;"/><text fill="#000000" font-family="sans-serif" font-size="13" lengthAdjust="spacingAndGlyphs" textLength="22" x="1134" y="158.5684">use</text><path d="M136.955,328.007 C134.532,337.41 132.2,348.086 131,358 C129.336,371.751 131.447,386.794 134.493,399.704 " fill="none" style="stroke: #A80036; stroke-width: 1.0;"/><polygon fill="#A80036" points="135.749,404.724,137.4461,395.0225,134.536,399.8734,129.6851,396.9633,135.749,404.724" style="stroke: #A80036; stroke-width: 1.0;"/><text fill="#000000" font-family="sans-serif" font-size="13" lengthAdjust="spacingAndGlyphs" textLength="22" x="132" y="371.5684">use</text><path d="M534.586,328.143 C534.268,348.957 533.828,377.75 533.492,399.741 " fill="none" style="stroke: #A80036; stroke-width: 1.0;"/><polygon fill="#A80036" points="533.414,404.891,537.5524,395.9538,533.4911,399.8916,529.5533,395.8304,533.414,404.891" style="stroke: #A80036; stroke-width: 1.0;"/><text fill="#000000" font-family="sans-serif" font-size="13" lengthAdjust="spacingAndGlyphs" textLength="22" x="536" y="371.5684">use</text><path d="M427.9275,311.2668 C427.758,311.4823 427.5863,311.7008 427.4123,311.922 C426.7165,312.807 425.9852,313.7371 425.2209,314.7093 C419.1062,322.4863 410.8799,332.9488 401.8476,344.4365 C383.783,367.412 362.494,394.4885 348.424,412.384 " fill="none" style="stroke: #A80036; stroke-width: 1.0; stroke-dasharray: 7.0,7.0;"/><path d="M170.344,461.312 C187.344,479.509 210.323,503.871 231,525 C271.884,566.78 320.015,613.962 351.22,644.295 " fill="none" style="stroke: #A80036; stroke-width: 1.0;"/><polygon fill="#A80036" points="354.94,647.909,351.273,638.7683,351.3541,644.4245,345.6978,644.5057,354.94,647.909" style="stroke: #A80036; stroke-width: 1.0;"/><path d="M532.774,461.29 C532.406,505.896 531.675,594.278 531.276,642.574 " fill="none" style="stroke: #A80036; stroke-width: 1.0;"/><polygon fill="#A80036" points="531.234,647.69,535.3084,638.7235,531.2754,642.6902,527.3087,638.6572,531.234,647.69" style="stroke: #A80036; stroke-width: 1.0;"/><path d="M847.761,461.29 C820.613,506.914 766.212,598.339 737.958,645.82 " fill="none" style="stroke: #A80036; stroke-width: 1.0;"/><polygon fill="#A80036" points="735.308,650.275,743.3487,644.5875,737.8655,645.9786,736.4745,640.4955,735.308,650.275" style="stroke: #A80036; stroke-width: 1.0;"/><path d="M1359.05,461.2 C1346.77,480.351 1331.68,507.095 1324,533 C1311.61,574.803 1311.03,626.322 1311.89,654.708 " fill="none" style="stroke: #A80036; stroke-width: 1.0;"/><polygon fill="#A80036" points="1312.07,659.732,1315.754,650.5981,1311.8958,654.735,1307.7589,650.8768,1312.07,659.732" style="stroke: #A80036; stroke-width: 1.0;"/><text fill="#000000" font-family="sans-serif" font-size="13" lengthAdjust="spacingAndGlyphs" textLength="75" x="1325" y="546.5684">https / json</text><path d="M1386.01,461.29 C1400.32,510.09 1430.01,611.288 1442.86,655.066 " fill="none" style="stroke: #A80036; stroke-width: 1.0;"/><polygon fill="#A80036" points="1444.27,659.865,1445.5766,650.1032,1442.8634,655.0669,1437.8997,652.3537,1444.27,659.865" style="stroke: #A80036; stroke-width: 1.0;"/><text fill="#000000" font-family="sans-serif" font-size="13" lengthAdjust="spacingAndGlyphs" textLength="75" x="1412" y="546.5684">https / json</text><path d="M1417.1,461.118 C1447.56,483.953 1489.07,519.058 1516,558 C1538.74,590.875 1561.74,631.355 1574.9,655.343 " fill="none" style="stroke: #A80036; stroke-width: 1.0;"/><polygon fill="#A80036" points="1577.39,659.913,1576.5834,650.0972,1574.9919,655.5256,1569.5636,653.9341,1577.39,659.913" style="stroke: #A80036; stroke-width: 1.0;"/><text fill="#000000" font-family="sans-serif" font-size="13" lengthAdjust="spacingAndGlyphs" textLength="75" x="1511" y="546.5684">https / json</text><path d="M1114.51,461.29 C1081.3,510.288 1012.3,612.11 982.828,655.596 " fill="none" style="stroke: #A80036; stroke-width: 1.0;"/><polygon fill="#A80036" points="979.934,659.865,988.2952,654.6601,982.7397,655.7264,981.6734,650.171,979.934,659.865" style="stroke: #A80036; stroke-width: 1.0;"/><text fill="#000000" font-family="sans-serif" font-size="13" lengthAdjust="spacingAndGlyphs" textLength="15" x="1067" y="546.5684">???</text><path d="M1133.68,461.29 C1134.88,509.991 1137.39,610.878 1138.47,654.799 " fill="none" style="stroke: #A80036; stroke-width: 1.0;"/><polygon fill="#A80036" points="1138.6,659.865,1142.3751,650.7684,1138.4758,654.8665,1134.3776,650.9672,1138.6,659.865" style="stroke: #A80036; stroke-width: 1.0;"/><text fill="#000000" font-family="sans-serif" font-size="13" lengthAdjust="spacingAndGlyphs" textLength="15" x="1137" y="546.5684">???</text></g></svg>